<svg xmlns="http://www.w3.org/2000/svg" width="300" height="440" viewBox="0 0 300 440">
      <defs>
        <linearGradient id="paper" x1="0" y1="0" x2="1" y2="1"><stop offset="0" stop-color="#fffaf0"/><stop offset=".5" stop-color="#f4ead7"/><stop offset="1" stop-color="#eee0c7"/></linearGradient>
        <linearGradient id="gold" x1="0" y1="0" x2="1" y2="1"><stop offset="0" stop-color="#fff0ae"/><stop offset=".48" stop-color="#d9aa45"/><stop offset="1" stop-color="#9f6810"/></linearGradient>
        <linearGradient id="cloth" x1="0" y1="0" x2="1" y2="1"><stop offset="0" stop-color="#fff"/><stop offset="1" stop-color="#000"/></linearGradient>
        <filter id="grain"><feTurbulence type="fractalNoise" baseFrequency=".8" numOctaves="2" seed="4"/><feColorMatrix values="1 0 0 0 0 0 1 0 0 0 0 0 1 0 0 0 0 0 .035 0"/></filter>
        <filter id="shadow"><feDropShadow dx="0" dy="3" stdDeviation="2" flood-opacity=".2"/></filter>
      </defs>
      <rect x="2" y="2" width="296" height="436" rx="24" fill="url(#paper)" stroke="#6a4a20" stroke-width="4"/>
      <rect x="10" y="10" width="280" height="420" rx="18" fill="none" stroke="#c39b52" stroke-width="3"/>
      <rect x="17" y="17" width="266" height="406" rx="14" fill="none" stroke="#6f552d" stroke-width="1.5"/>
      <path d="M22 52C42 32 52 22 75 22M225 22c23 0 33 10 53 30M22 388c20 20 30 30 53 30M225 418c23 0 33-10 53-30" fill="none" stroke="#c49a4d" stroke-width="3"/>
      <g><g>
      <path d="M74 363c23-41 52-71 76-95 24 24 53 54 76 95Z" fill="#294d80" stroke="#3a2819" stroke-width="4"/>
      <path d="M82 282c15-32 62-48 102-31 27 12 38 31 45 56-21 15-43 21-65 17l-16 48h-22l8-51c-19-6-34-18-52-39Z" fill="#d7b786" stroke="#795b34" stroke-width="4"/>
        <path d="M188 254c24-27 47-23 58-6l-15 37-28-6Z" fill="#d7b786" stroke="#795b34" stroke-width="4"/>
        <circle cx="229" cy="252" r="3" fill="#2b2117"/>
        <path d="M230 270c13 5 20 13 24 24" fill="none" stroke="#795b34" stroke-width="4"/>
        <path d="M213 276l45-101" stroke="#85643a" stroke-width="7"/><path d="M256 169l10-24 5 27Z" fill="#c9dadd" stroke="#5b7077" stroke-width="2"/>
      <path d="M107 151c9-37 28-54 43-54s34 17 43 54v98h-86Z" fill="#4d75ad" stroke="#3a2819" stroke-width="4"/>
      <path d="M117 154h66v68h-66Z" fill="url(#cloth)" opacity=".38"/>
      <ellipse cx="150" cy="116" rx="32" ry="37" fill="#efd0ad" stroke="#7e4f36" stroke-width="4"/>
      <path d="M122 111c7-23 20-33 31-33 18 0 29 12 32 32-11-8-20-13-31-13-11 0-20 5-32 14Z" fill="#5b3324"/>
      <path d="M118 92l10-30 17 22 18-34 18 34 17-22 10 30Z" fill="url(#gold)" stroke="#9b6815" stroke-width="3"/>
      <circle cx="139" cy="116" r="3" fill="#2b2117"/><circle cx="161" cy="116" r="3" fill="#2b2117"/>
      <path d="M140 133c7 6 13 6 20 0" fill="none" stroke="#a25f4a" stroke-width="3" stroke-linecap="round"/>
      <path d="M107 170c-27 20-36 48-30 83" fill="none" stroke="#4d75ad" stroke-width="21" stroke-linecap="round"/>
      <path d="M193 170c27 20 36 48 30 83" fill="none" stroke="#4d75ad" stroke-width="21" stroke-linecap="round"/>
      <rect x="103" y="239" width="94" height="15" rx="7" fill="url(#gold)" stroke="#9b6815" stroke-width="2"/>
      <g transform="translate(150 194)"><g transform="translate(0 0) rotate(0) scale(0.7)" opacity="1">
          <g transform="rotate(-36)">
            <rect x="-8" y="-31" width="16" height="62" rx="8" fill="#527d46" stroke="#31582b" stroke-width="2"/>
            <path d="M-9-17H9M-9-5H9M-9 7H9M-9 19H9" stroke="#c7d7b8" stroke-width="3" opacity=".72"/>
          </g>
        </g></g>
      <path d="M112 179c-17 19-24 52-15 82" fill="none" stroke="#e3c9a7" stroke-width="17" stroke-linecap="round"/>
      <text x="150" y="398" text-anchor="middle" font-family="Georgia,serif" font-size="22" font-weight="700" letter-spacing="5" fill="#4a3925">CABALLO</text>
    </g></g>
      <g transform="translate(36 48) rotate(0)">
      <text x="0" y="0" text-anchor="middle" font-family="Georgia,serif" font-size="34" font-weight="700" fill="#2a2218">C</text>
      <g transform="translate(0 28) rotate(0) scale(0.37)" opacity="1">
          <g transform="rotate(-36)">
            <rect x="-8" y="-31" width="16" height="62" rx="8" fill="#527d46" stroke="#31582b" stroke-width="2"/>
            <path d="M-9-17H9M-9-5H9M-9 7H9M-9 19H9" stroke="#c7d7b8" stroke-width="3" opacity=".72"/>
          </g>
        </g>
    </g>
      <g transform="translate(264 392) rotate(180)">
      <text x="0" y="0" text-anchor="middle" font-family="Georgia,serif" font-size="34" font-weight="700" fill="#2a2218">C</text>
      <g transform="translate(0 28) rotate(0) scale(0.37)" opacity="1">
          <g transform="rotate(-36)">
            <rect x="-8" y="-31" width="16" height="62" rx="8" fill="#527d46" stroke="#31582b" stroke-width="2"/>
            <path d="M-9-17H9M-9-5H9M-9 7H9M-9 19H9" stroke="#c7d7b8" stroke-width="3" opacity=".72"/>
          </g>
        </g>
    </g>
      <text x="150" y="24" text-anchor="middle" font-family="Georgia,serif" font-size="11" letter-spacing="4" fill="#8d6a32">TUTE CLÁSICO</text>
      
    </svg>