<svg xmlns="http://www.w3.org/2000/svg" width="620" height="956" viewBox="0 0 620 956"><defs><filter id="shadow" x="-20%" y="-20%" width="140%" height="140%"><feDropShadow dx="0" dy="5" stdDeviation="4" flood-opacity=".08"/></filter><linearGradient id="oroFill" x1="0" x2="1"><stop offset="0" stop-color="#f7db89"/><stop offset="1" stop-color="#d19309"/></linearGradient></defs><g filter="url(#shadow)"><rect width="620" height="956" rx="30" fill="#fbf8f0"/><rect x="9" y="9" width="602" height="938" rx="24" fill="none" stroke="#ebe3d4" stroke-width="2"/><rect x="38" y="38" width="544" height="880" rx="18" fill="none" stroke="#23251f" stroke-width="2.6"/><path d="M60 78H120M60 78V138" stroke="#23251f" stroke-width="3"/><path d="M500 78H560M560 78V138" stroke="#23251f" stroke-width="3"/><path d="M60 818H120M60 818V878" stroke="#23251f" stroke-width="3"/><path d="M500 878H560M560 818V878" stroke="#23251f" stroke-width="3"/><g transform="translate(60 90)"><text x="0" y="0" text-anchor="middle" font-family="Georgia,serif" font-size="42" font-weight="700" fill="#1d211b">6</text><g transform="translate(0 38) scale(.58)"><g transform="rotate(-36)"><rect x="-8" y="-30" width="16" height="60" rx="8" fill="#7cab63" stroke="#304b26" stroke-width="3"/><path d="M-9 -16H9M-9 -3H9M-9 10H9M-9 23H9" stroke="#dce8d6" stroke-width="3" opacity=".55"/></g></g></g><g transform="translate(560 860) rotate(180 0 0)"><text x="0" y="0" text-anchor="middle" font-family="Georgia,serif" font-size="42" font-weight="700" fill="#1d211b">6</text><g transform="translate(0 38) scale(.58)"><g transform="rotate(-36)"><rect x="-8" y="-30" width="16" height="60" rx="8" fill="#7cab63" stroke="#304b26" stroke-width="3"/><path d="M-9 -16H9M-9 -3H9M-9 10H9M-9 23H9" stroke="#dce8d6" stroke-width="3" opacity=".55"/></g></g></g><g transform="translate(204.6 210.3) scale(0.9) rotate(0)"><g transform="rotate(-36)"><rect x="-8" y="-30" width="16" height="60" rx="8" fill="#7cab63" stroke="#304b26" stroke-width="3"/><path d="M-9 -16H9M-9 -3H9M-9 10H9M-9 23H9" stroke="#dce8d6" stroke-width="3" opacity=".55"/></g></g><g transform="translate(415.4 210.3) scale(0.9) rotate(0)"><g transform="rotate(-36)"><rect x="-8" y="-30" width="16" height="60" rx="8" fill="#7cab63" stroke="#304b26" stroke-width="3"/><path d="M-9 -16H9M-9 -3H9M-9 10H9M-9 23H9" stroke="#dce8d6" stroke-width="3" opacity=".55"/></g></g><g transform="translate(204.6 478.0) scale(0.9) rotate(0)"><g transform="rotate(-36)"><rect x="-8" y="-30" width="16" height="60" rx="8" fill="#7cab63" stroke="#304b26" stroke-width="3"/><path d="M-9 -16H9M-9 -3H9M-9 10H9M-9 23H9" stroke="#dce8d6" stroke-width="3" opacity=".55"/></g></g><g transform="translate(415.4 478.0) scale(0.9) rotate(0)"><g transform="rotate(-36)"><rect x="-8" y="-30" width="16" height="60" rx="8" fill="#7cab63" stroke="#304b26" stroke-width="3"/><path d="M-9 -16H9M-9 -3H9M-9 10H9M-9 23H9" stroke="#dce8d6" stroke-width="3" opacity=".55"/></g></g><g transform="translate(204.6 745.7) scale(0.9) rotate(180)"><g transform="rotate(-36)"><rect x="-8" y="-30" width="16" height="60" rx="8" fill="#7cab63" stroke="#304b26" stroke-width="3"/><path d="M-9 -16H9M-9 -3H9M-9 10H9M-9 23H9" stroke="#dce8d6" stroke-width="3" opacity=".55"/></g></g><g transform="translate(415.4 745.7) scale(0.9) rotate(180)"><g transform="rotate(-36)"><rect x="-8" y="-30" width="16" height="60" rx="8" fill="#7cab63" stroke="#304b26" stroke-width="3"/><path d="M-9 -16H9M-9 -3H9M-9 10H9M-9 23H9" stroke="#dce8d6" stroke-width="3" opacity=".55"/></g></g><text x="310" y="858" text-anchor="middle" font-family="Georgia,serif" font-size="23" letter-spacing="8" fill="#5a5246" opacity=".82">SEIS</text></g></svg>