<svg xmlns="http://www.w3.org/2000/svg" width="300" height="440" viewBox="0 0 300 440">
      <defs>
        <linearGradient id="paper" x1="0" y1="0" x2="1" y2="1"><stop offset="0" stop-color="#fffaf0"/><stop offset=".5" stop-color="#f4ead7"/><stop offset="1" stop-color="#eee0c7"/></linearGradient>
        <linearGradient id="gold" x1="0" y1="0" x2="1" y2="1"><stop offset="0" stop-color="#fff0ae"/><stop offset=".48" stop-color="#d9aa45"/><stop offset="1" stop-color="#9f6810"/></linearGradient>
        <linearGradient id="cloth" x1="0" y1="0" x2="1" y2="1"><stop offset="0" stop-color="#fff"/><stop offset="1" stop-color="#000"/></linearGradient>
        <filter id="grain"><feTurbulence type="fractalNoise" baseFrequency=".8" numOctaves="2" seed="4"/><feColorMatrix values="1 0 0 0 0 0 1 0 0 0 0 0 1 0 0 0 0 0 .035 0"/></filter>
        <filter id="shadow"><feDropShadow dx="0" dy="3" stdDeviation="2" flood-opacity=".2"/></filter>
      </defs>
      <rect x="2" y="2" width="296" height="436" rx="24" fill="url(#paper)" stroke="#6a4a20" stroke-width="4"/>
      <rect x="10" y="10" width="280" height="420" rx="18" fill="none" stroke="#c39b52" stroke-width="3"/>
      <rect x="17" y="17" width="266" height="406" rx="14" fill="none" stroke="#6f552d" stroke-width="1.5"/>
      <path d="M22 52C42 32 52 22 75 22M225 22c23 0 33 10 53 30M22 388c20 20 30 30 53 30M225 418c23 0 33-10 53-30" fill="none" stroke="#c49a4d" stroke-width="3"/>
      <g><g transform="translate(95 80) rotate(0) scale(0.72)" opacity="1">
          <path d="M-23-25h46c-1 22-7 34-18 39v10h13v7h-36v-7h13V14c-11-5-17-17-18-39Z" fill="#b54139" stroke="#7f2724" stroke-width="2"/>
          <path d="M-15-17h30C12-4 7 5 0 9-7 5-12-4-15-17Z" fill="#efc2a7" opacity=".72"/>
          <path d="M-8-15c1 9 4 15 8 19 4-4 7-10 8-19" fill="none" stroke="#f6dfd3" stroke-width="2" opacity=".72"/>
        </g><g transform="translate(205 80) rotate(0) scale(0.72)" opacity="1">
          <path d="M-23-25h46c-1 22-7 34-18 39v10h13v7h-36v-7h13V14c-11-5-17-17-18-39Z" fill="#b54139" stroke="#7f2724" stroke-width="2"/>
          <path d="M-15-17h30C12-4 7 5 0 9-7 5-12-4-15-17Z" fill="#efc2a7" opacity=".72"/>
          <path d="M-8-15c1 9 4 15 8 19 4-4 7-10 8-19" fill="none" stroke="#f6dfd3" stroke-width="2" opacity=".72"/>
        </g><g transform="translate(150 150) rotate(0) scale(0.72)" opacity="1">
          <path d="M-23-25h46c-1 22-7 34-18 39v10h13v7h-36v-7h13V14c-11-5-17-17-18-39Z" fill="#b54139" stroke="#7f2724" stroke-width="2"/>
          <path d="M-15-17h30C12-4 7 5 0 9-7 5-12-4-15-17Z" fill="#efc2a7" opacity=".72"/>
          <path d="M-8-15c1 9 4 15 8 19 4-4 7-10 8-19" fill="none" stroke="#f6dfd3" stroke-width="2" opacity=".72"/>
        </g><g transform="translate(95 220) rotate(0) scale(0.72)" opacity="1">
          <path d="M-23-25h46c-1 22-7 34-18 39v10h13v7h-36v-7h13V14c-11-5-17-17-18-39Z" fill="#b54139" stroke="#7f2724" stroke-width="2"/>
          <path d="M-15-17h30C12-4 7 5 0 9-7 5-12-4-15-17Z" fill="#efc2a7" opacity=".72"/>
          <path d="M-8-15c1 9 4 15 8 19 4-4 7-10 8-19" fill="none" stroke="#f6dfd3" stroke-width="2" opacity=".72"/>
        </g><g transform="translate(205 220) rotate(0) scale(0.72)" opacity="1">
          <path d="M-23-25h46c-1 22-7 34-18 39v10h13v7h-36v-7h13V14c-11-5-17-17-18-39Z" fill="#b54139" stroke="#7f2724" stroke-width="2"/>
          <path d="M-15-17h30C12-4 7 5 0 9-7 5-12-4-15-17Z" fill="#efc2a7" opacity=".72"/>
          <path d="M-8-15c1 9 4 15 8 19 4-4 7-10 8-19" fill="none" stroke="#f6dfd3" stroke-width="2" opacity=".72"/>
        </g><g transform="translate(95 340) rotate(180) scale(0.72)" opacity="1">
          <path d="M-23-25h46c-1 22-7 34-18 39v10h13v7h-36v-7h13V14c-11-5-17-17-18-39Z" fill="#b54139" stroke="#7f2724" stroke-width="2"/>
          <path d="M-15-17h30C12-4 7 5 0 9-7 5-12-4-15-17Z" fill="#efc2a7" opacity=".72"/>
          <path d="M-8-15c1 9 4 15 8 19 4-4 7-10 8-19" fill="none" stroke="#f6dfd3" stroke-width="2" opacity=".72"/>
        </g><g transform="translate(205 340) rotate(180) scale(0.72)" opacity="1">
          <path d="M-23-25h46c-1 22-7 34-18 39v10h13v7h-36v-7h13V14c-11-5-17-17-18-39Z" fill="#b54139" stroke="#7f2724" stroke-width="2"/>
          <path d="M-15-17h30C12-4 7 5 0 9-7 5-12-4-15-17Z" fill="#efc2a7" opacity=".72"/>
          <path d="M-8-15c1 9 4 15 8 19 4-4 7-10 8-19" fill="none" stroke="#f6dfd3" stroke-width="2" opacity=".72"/>
        </g></g>
      <g transform="translate(36 48) rotate(0)">
      <text x="0" y="0" text-anchor="middle" font-family="Georgia,serif" font-size="34" font-weight="700" fill="#2a2218">7</text>
      <g transform="translate(0 28) rotate(0) scale(0.37)" opacity="1">
          <path d="M-23-25h46c-1 22-7 34-18 39v10h13v7h-36v-7h13V14c-11-5-17-17-18-39Z" fill="#b54139" stroke="#7f2724" stroke-width="2"/>
          <path d="M-15-17h30C12-4 7 5 0 9-7 5-12-4-15-17Z" fill="#efc2a7" opacity=".72"/>
          <path d="M-8-15c1 9 4 15 8 19 4-4 7-10 8-19" fill="none" stroke="#f6dfd3" stroke-width="2" opacity=".72"/>
        </g>
    </g>
      <g transform="translate(264 392) rotate(180)">
      <text x="0" y="0" text-anchor="middle" font-family="Georgia,serif" font-size="34" font-weight="700" fill="#2a2218">7</text>
      <g transform="translate(0 28) rotate(0) scale(0.37)" opacity="1">
          <path d="M-23-25h46c-1 22-7 34-18 39v10h13v7h-36v-7h13V14c-11-5-17-17-18-39Z" fill="#b54139" stroke="#7f2724" stroke-width="2"/>
          <path d="M-15-17h30C12-4 7 5 0 9-7 5-12-4-15-17Z" fill="#efc2a7" opacity=".72"/>
          <path d="M-8-15c1 9 4 15 8 19 4-4 7-10 8-19" fill="none" stroke="#f6dfd3" stroke-width="2" opacity=".72"/>
        </g>
    </g>
      <text x="150" y="24" text-anchor="middle" font-family="Georgia,serif" font-size="11" letter-spacing="4" fill="#8d6a32">TUTE CLÁSICO</text>
      
    </svg>