<svg xmlns="http://www.w3.org/2000/svg" width="620" height="956" viewBox="0 0 620 956" role="img" aria-label="Carta española de espadas">
      
    <defs>
      <filter id="paper" x="-10%" y="-10%" width="120%" height="120%">
        <feTurbulence type="fractalNoise" baseFrequency=".58" numOctaves="2" seed="9" result="noise"/>
        <feColorMatrix in="noise" type="matrix" values="1 0 0 0 0  0 1 0 0 0  0 0 1 0 0  0 0 0 .055 0" result="grain"/>
        <feBlend in="SourceGraphic" in2="grain" mode="multiply"/>
      </filter>
      <filter id="inkShadow" x="-25%" y="-25%" width="150%" height="150%">
        <feDropShadow dx="0" dy="3" stdDeviation="2.4" flood-color="#2A1E12" flood-opacity=".16"/>
      </filter>
      <linearGradient id="gold" x1="0" y1="0" x2="1" y2="1">
        <stop offset="0" stop-color="#FFE88B"/><stop offset=".5" stop-color="#72BEE5"/><stop offset="1" stop-color="#2F6E98"/>
      </linearGradient>
      <linearGradient id="robe" x1="0" y1="0" x2="0" y2="1">
        <stop offset="0" stop-color="#D94B42"/><stop offset="1" stop-color="#2F6E98"/>
      </linearGradient>
      <pattern id="brocade" width="30" height="30" patternUnits="userSpaceOnUse">
        <rect width="30" height="30" fill="#D94B42"/>
        <path d="M15 3L23 15L15 27L7 15Z" fill="none" stroke="#E0B736" stroke-width="2.3" opacity=".7"/>
        <circle cx="15" cy="15" r="2.4" fill="#DDF3FF" opacity=".82"/>
      </pattern>
      <pattern id="capePattern" width="34" height="34" patternUnits="userSpaceOnUse">
        <rect width="34" height="34" fill="#61A9D0"/>
        <path d="M0 17H34M17 0V34" stroke="#F7E6BA" stroke-width="1.6" opacity=".32"/>
      </pattern>
    </defs><g filter="url(#paper)">
      <rect width="620" height="956" rx="31" fill="#FBF7EC"/>
      <rect x="8" y="8" width="604" height="940" rx="25" fill="none" stroke="#E7DDC9" stroke-width="3"/>
      <g fill="none" stroke="#17211C" stroke-width="3.2" stroke-linecap="square">
        <path d="M42 42H215.0 M235.0 42H385.0 M405.0 42H578"/><path d="M42 914H215.0 M235.0 914H385.0 M405.0 914H578"/><path d="M42 42V914M578 42V914"/>
      </g>
      <rect x="54" y="54" width="512" height="848" rx="11" fill="none" stroke="#2F6E98" stroke-width="1.4" opacity=".25"/>
      <circle cx="310" cy="875" r="13" fill="#FBF7EC" stroke="#2F6E98" stroke-width="1.6" opacity=".7"/>
      <text x="310" y="880" text-anchor="middle" font-family="Georgia,serif" font-size="12" font-weight="700" fill="#2F6E98" opacity=".8">T</text>
    <g transform="translate(68 98)">
      <text x="0" y="0" text-anchor="middle" font-family="Georgia,serif" font-size="43" font-weight="700" fill="#17211C">11</text>
      <g transform="translate(0 42) scale(.56)"><g transform="scale(1.0)" stroke-linejoin="round">
          <path d="M0 -38L13 -20L6 18L16 29L10 36L0 24L-10 36L-16 29L-6 18L-13 -20Z" fill="#72BEE5" stroke="#173F5A" stroke-width="4"/>
          <path d="M0 -29L5 -19L0 12L-5 -19Z" fill="#EAF8FF" opacity=".82"/>
          <path d="M-14 31H14" stroke="#EAF8FF" stroke-width="4" opacity=".66"/>
          <circle cy="23" r="3" fill="#E0B736"/>
        </g></g>
    </g><g transform="translate(552 858) rotate(180)">
      <text x="0" y="0" text-anchor="middle" font-family="Georgia,serif" font-size="43" font-weight="700" fill="#17211C">11</text>
      <g transform="translate(0 42) scale(.56)"><g transform="scale(1.0)" stroke-linejoin="round">
          <path d="M0 -38L13 -20L6 18L16 29L10 36L0 24L-10 36L-16 29L-6 18L-13 -20Z" fill="#72BEE5" stroke="#173F5A" stroke-width="4"/>
          <path d="M0 -29L5 -19L0 12L-5 -19Z" fill="#EAF8FF" opacity=".82"/>
          <path d="M-14 31H14" stroke="#EAF8FF" stroke-width="4" opacity=".66"/>
          <circle cy="23" r="3" fill="#E0B736"/>
        </g></g>
    </g><g transform="translate(310 505)" filter="url(#inkShadow)" stroke-linejoin="round">
      <path d="M-164 86C-146 -62 -58 -125 54 -96C147 -72 191 25 157 135C125 182 42 198 -49 175C-107 161 -151 132 -164 86Z" fill="#E6D3B4" stroke="#3A3027" stroke-width="6"/>
      <path d="M72 -82C130 -142 188 -109 181 -45C176 2 137 22 109 7C133 -5 142 -30 128 -50C114 -69 94 -64 72 -48Z" fill="#E6D3B4" stroke="#3A3027" stroke-width="6"/>
      <path d="M161 -84L193 -109L184 -69Z" fill="#E6D3B4" stroke="#3A3027" stroke-width="5"/>
      <circle cx="153" cy="-55" r="5" fill="#151512"/>
      <path d="M-123 145L-145 324H-104L-72 171M-15 174L-23 329H18L47 181M91 161L114 318H154L136 137" fill="#D9C19E" stroke="#3A3027" stroke-width="6" stroke-linejoin="round"/>
      <path d="M-153 319H-94M-31 327H26M107 317H161" stroke="#303025" stroke-width="10" stroke-linecap="round"/>
      <path d="M-108 -34C-35 -76 54 -70 119 -12L85 74H-87Z" fill="#D94B42" stroke="#253129" stroke-width="6"/>
      <path d="M-65 -50H60L72 58H-73Z" fill="url(#brocade)" stroke="#253129" stroke-width="5"/>
      <path d="M-28 47L-44 198H-1L16 55M34 48L44 188H82L68 45" fill="#D94A42" stroke="#253129" stroke-width="5"/>
      <g transform="translate(0 -128) scale(0.8)">
      <ellipse cx="0" cy="0" rx="42" ry="53" fill="#F0C9A5" stroke="#5B4435" stroke-width="3"/>
      <path d="M-37 -16C-31 -49 28 -53 39 -17C17 -36 -18 -35 -37 -16Z" fill="#7E4A25" stroke="#5B4435" stroke-width="3"/>
      <path d="M-15 -2L-4 -5M15 -2L4 -5" stroke="#3A2A22" stroke-width="3" stroke-linecap="round"/>
      <path d="M0 0L-3 18L5 20" fill="none" stroke="#9B684E" stroke-width="2.4" stroke-linecap="round"/>
      <path d="M-10 30C-2 35 4 35 12 30" fill="none" stroke="#A14F48" stroke-width="2.5" stroke-linecap="round"/>
      
    </g>
      <path d="M-43 -171L15 -189L52 -157L20 -133H-38Z" fill="#D7B540" stroke="#253129" stroke-width="4"/>
      <path d="M-93 -51C-128 -25 -144 22 -137 63" fill="none" stroke="#F0C9A5" stroke-width="22" stroke-linecap="round"/>
      <g transform="translate(-148 -73) rotate(0) scale(0.78)"><g transform="scale(1.0)" stroke-linejoin="round">
          <path d="M0 -38L13 -20L6 18L16 29L10 36L0 24L-10 36L-16 29L-6 18L-13 -20Z" fill="#72BEE5" stroke="#173F5A" stroke-width="4"/>
          <path d="M0 -29L5 -19L0 12L-5 -19Z" fill="#EAF8FF" opacity=".82"/>
          <path d="M-14 31H14" stroke="#EAF8FF" stroke-width="4" opacity=".66"/>
          <circle cy="23" r="3" fill="#E0B736"/>
        </g></g>
      <path d="M103 -119L143 265" stroke="#795C34" stroke-width="10" stroke-linecap="round"/>
      <path d="M142 -128L164 -88L120 -88Z" fill="#DCEEF7" stroke="#253129" stroke-width="4"/>
      <path d="M-97 81C-20 106 66 104 125 77" fill="none" stroke="#D63E37" stroke-width="11"/>
      <path d="M-89 101C-16 127 55 126 117 98" fill="none" stroke="#E8B83C" stroke-width="7"/>
    </g><text x="310" y="858" text-anchor="middle" font-family="Georgia,serif" font-size="21" letter-spacing="8" fill="#2F6E98" opacity=".65">CABALLO</text></g>
    </svg>